<svg width="244" height="46" viewBox="0 0 244 46" fill="none" xmlns="http://www.w3.org/2000/svg">
<path d="M18.8 28.04L0.56 20.68V11.08L29.36 23.88V32.2L0.56 45V35.4L18.8 28.04ZM60.3725 45V10.12L53.0125 12.68L49.8125 5.32L61.6525 0.199997H71.8925V45H60.3725ZM76.39 0.199997H110.95V9.16L96.23 45H83.43L98.79 9.16H76.39V0.199997ZM137.79 45.64C135.955 45.64 133.822 45.4267 131.39 45V36.68H133.95C135.571 36.68 136.425 35.8267 136.51 34.12L137.79 11.08H168.51V45H157.31V19.72H148.35L147.39 36.04C147.219 38.9413 146.259 41.2667 144.51 43.016C142.761 44.7653 140.521 45.64 137.79 45.64ZM188.008 18.44C186.301 18.44 185.448 19.2933 185.448 21V24.52H196.328V21C196.328 19.2933 195.474 18.44 193.768 18.44H188.008ZM206.248 44.36C198.013 45.2133 190.546 45.64 183.848 45.64C180.946 45.64 178.621 44.7653 176.872 43.016C175.122 41.2667 174.248 38.9413 174.248 36.04V20.68C174.248 17.48 175.144 14.984 176.936 13.192C178.77 11.3573 181.288 10.44 184.488 10.44H197.288C200.488 10.44 202.984 11.3573 204.776 13.192C206.61 14.984 207.528 17.48 207.528 20.68V32.52H185.448V35.08C185.448 35.72 185.661 36.2533 186.088 36.68C186.514 37.1067 187.048 37.32 187.688 37.32C191.912 37.32 198.098 37 206.248 36.36V44.36ZM232.463 19.72V45H221.263V19.72H210.703V11.08H243.023V19.72H232.463Z" fill="#EAB93B"/>
</svg>
